<svg viewBox="0 0 100 100" fill="none" xmlns="http://www.w3.org/2000/svg"><path fill="#272727" d="M0 0h100v100H0z"/><path d="M76.016 66.64h20v3.68h-20v-3.68Z" fill="#fff"/><path d="M10.16 46.52c.987 0 1.827.2 2.52.6.693.4 1.48.987 2.36 1.76.667.587 1.2 1.013 1.6 1.28.4.24.84.36 1.32.36.747 0 1.427-.28 2.04-.84.613-.56 1.2-1.373 1.76-2.44l2.84 1.36c-.853 1.733-1.8 3.093-2.84 4.08-1.013.987-2.32 1.48-3.92 1.48-.933 0-1.747-.2-2.44-.6-.693-.4-1.467-.973-2.32-1.72-.64-.56-1.187-.973-1.64-1.24a2.42 2.42 0 0 0-1.4-.44c-.773 0-1.453.28-2.04.84-.587.56-1.173 1.373-1.76 2.44L3.4 52.08c.853-1.707 1.787-3.053 2.8-4.04 1.04-1.013 2.36-1.52 3.96-1.52Zm17.584 19.12 16.96-35.12 3.52 1.64-16.92 35.08-3.56-1.6ZM64.449 63l-2.4-15-2.56 15h-5.48l-3.56-21.12h4.32l2.2 18.32 2.96-15.64h4.48l2.72 15.64 2.2-18.32h4.16L70.049 63h-5.6Z" fill="#FF652F"/></svg>