<svg width="171" height="20" fill="none" xmlns="http://www.w3.org/2000/svg"><path d="M161.795 17.638h9v1.656h-9v-1.656Z" fill="#fff"/><path d="M24.258 8.584c.444 0 .822.09 1.134.27.312.18.666.444 1.062.792.3.264.54.456.72.576.18.108.378.162.594.162.336 0 .642-.126.918-.378s.54-.618.792-1.098l1.278.612c-.384.78-.81 1.392-1.278 1.836-.456.444-1.044.666-1.764.666-.42 0-.786-.09-1.098-.27a6.794 6.794 0 0 1-1.044-.774 5.16 5.16 0 0 0-.738-.558 1.089 1.089 0 0 0-.63-.198 1.29 1.29 0 0 0-.918.378c-.264.252-.528.618-.792 1.098l-1.278-.612c.384-.768.804-1.374 1.26-1.818.468-.456 1.062-.684 1.782-.684Zm7.912 8.604 7.633-15.804 1.584.738-7.614 15.786-1.602-.72ZM48.688 16l-1.08-6.75L46.456 16H43.99l-1.602-9.504h1.944l.99 8.244 1.332-7.038h2.016l1.224 7.038.99-8.244h1.872L51.208 16h-2.52Zm7.552-4.104c.06.924.325 1.62.793 2.088.48.456 1.08.684 1.8.684.444 0 .864-.066 1.26-.198a5.77 5.77 0 0 0 1.242-.63l.864 1.224c-.444.372-.966.66-1.566.864a5.83 5.83 0 0 1-1.89.306c-1.452 0-2.58-.45-3.384-1.35-.804-.912-1.206-2.124-1.206-3.636 0-.948.174-1.8.522-2.556.348-.768.852-1.368 1.512-1.8.66-.432 1.428-.648 2.304-.648 1.26 0 2.256.426 2.988 1.278.744.84 1.116 1.998 1.116 3.474 0 .36-.018.66-.054.9h-6.3Zm2.269-4.158c-.648 0-1.176.234-1.584.702-.408.468-.642 1.164-.702 2.088h4.41c-.024-.9-.216-1.59-.576-2.07-.36-.48-.876-.72-1.548-.72Zm8.867-.108a3.459 3.459 0 0 1 1.152-1.026c.456-.24.942-.36 1.458-.36 1.212 0 2.106.438 2.682 1.314.576.876.864 2.1.864 3.672 0 1.488-.336 2.694-1.008 3.618-.66.924-1.59 1.386-2.79 1.386-1.056 0-1.884-.39-2.484-1.17l-.108.936H65.36V2.68l2.016-.234V7.63Zm1.872 7.074c.696 0 1.224-.282 1.584-.846.372-.576.558-1.446.558-2.61 0-1.2-.168-2.076-.504-2.628-.324-.552-.81-.828-1.458-.828-.408 0-.792.126-1.152.378a3.421 3.421 0 0 0-.9.99v4.446c.48.732 1.104 1.098 1.872 1.098Zm6.095 2.484 7.632-15.804 1.584.738-7.614 15.786-1.602-.72ZM94.542 2.68V16H92.76l-.144-1.17a3.185 3.185 0 0 1-1.152 1.044c-.456.24-.96.36-1.512.36-1.188 0-2.082-.444-2.682-1.332-.6-.888-.9-2.106-.9-3.654 0-.972.15-1.836.45-2.592.312-.756.75-1.344 1.314-1.764.564-.432 1.23-.648 1.998-.648.972 0 1.77.348 2.394 1.044V2.446l2.016.234Zm-3.888 5.112c-.696 0-1.23.288-1.602.864-.36.564-.54 1.428-.54 2.592 0 2.304.66 3.456 1.98 3.456.792 0 1.47-.456 2.034-1.368V8.854c-.492-.708-1.116-1.062-1.872-1.062Zm8.759 4.104c.06.924.324 1.62.792 2.088.48.456 1.08.684 1.8.684.444 0 .864-.066 1.26-.198a5.77 5.77 0 0 0 1.242-.63l.864 1.224c-.444.372-.966.66-1.566.864a5.83 5.83 0 0 1-1.89.306c-1.452 0-2.58-.45-3.384-1.35-.804-.912-1.206-2.124-1.206-3.636 0-.948.174-1.8.522-2.556.348-.768.852-1.368 1.512-1.8.66-.432 1.428-.648 2.304-.648 1.26 0 2.256.426 2.988 1.278.744.84 1.116 1.998 1.116 3.474 0 .36-.018.66-.054.9h-6.3Zm2.268-4.158c-.648 0-1.176.234-1.584.702-.408.468-.642 1.164-.702 2.088h4.41c-.024-.9-.216-1.59-.576-2.07-.36-.48-.876-.72-1.548-.72ZM113.5 16h-2.34l-3.366-9.504h2.178l2.394 7.83 2.43-7.83h2.07L113.5 16Zm5.015 1.188 7.632-15.804 1.584.738-7.614 15.786-1.602-.72ZM137.714 2.68V16h-1.782l-.144-1.17a3.185 3.185 0 0 1-1.152 1.044c-.456.24-.96.36-1.512.36-1.188 0-2.082-.444-2.682-1.332-.6-.888-.9-2.106-.9-3.654 0-.972.15-1.836.45-2.592.312-.756.75-1.344 1.314-1.764.564-.432 1.23-.648 1.998-.648.972 0 1.77.348 2.394 1.044V2.446l2.016.234Zm-3.888 5.112c-.696 0-1.23.288-1.602.864-.36.564-.54 1.428-.54 2.592 0 2.304.66 3.456 1.98 3.456.792 0 1.47-.456 2.034-1.368V8.854c-.492-.708-1.116-1.062-1.872-1.062Zm8.759 4.104c.06.924.324 1.62.792 2.088.48.456 1.08.684 1.8.684.444 0 .864-.066 1.26-.198a5.77 5.77 0 0 0 1.242-.63l.864 1.224c-.444.372-.966.66-1.566.864a5.83 5.83 0 0 1-1.89.306c-1.452 0-2.58-.45-3.384-1.35-.804-.912-1.206-2.124-1.206-3.636 0-.948.174-1.8.522-2.556.348-.768.852-1.368 1.512-1.8.66-.432 1.428-.648 2.304-.648 1.26 0 2.256.426 2.988 1.278.744.84 1.116 1.998 1.116 3.474 0 .36-.018.66-.054.9h-6.3Zm2.268-4.158c-.648 0-1.176.234-1.584.702-.408.468-.642 1.164-.702 2.088h4.41c-.024-.9-.216-1.59-.576-2.07-.36-.48-.876-.72-1.548-.72Zm6.851-1.242h1.746l.144 1.242c.396-.48.858-.846 1.386-1.098a3.806 3.806 0 0 1 1.692-.396c.876 0 1.536.246 1.98.738.444.492.666 1.188.666 2.088V16h-2.016v-5.922c0-.588-.036-1.038-.108-1.35-.06-.324-.186-.558-.378-.702-.192-.156-.48-.234-.864-.234-.432 0-.846.132-1.242.396a3.882 3.882 0 0 0-.99.99V16h-2.016V6.496Z" fill="#FF652F"/><path d="M5.246 3.364c.684.072 1.314.24 1.89.504a5.645 5.645 0 0 1 1.494.936L7.55 5.938c-.684-.588-1.452-.93-2.304-1.026v3.726c1.14.372 2.022.858 2.646 1.458.624.588.936 1.386.936 2.394 0 .948-.312 1.764-.936 2.448-.624.672-1.506 1.08-2.646 1.224v2.646H3.932v-2.592a5.914 5.914 0 0 1-2.196-.54 6.275 6.275 0 0 1-1.674-1.152l1.08-1.224c.864.828 1.794 1.272 2.79 1.332v-4.5C2.768 9.748 1.904 9.274 1.34 8.71.788 8.146.512 7.444.512 6.604c0-.84.3-1.56.9-2.16.612-.6 1.452-.954 2.52-1.062v-2.7h1.314v2.682ZM3.932 4.93c-.456.084-.816.258-1.08.522-.252.264-.378.606-.378 1.026 0 .384.102.708.306.972.204.252.588.498 1.152.738V4.93Zm1.314 9.648c1.032-.216 1.548-.864 1.548-1.944 0-.456-.114-.84-.342-1.152-.228-.324-.63-.618-1.206-.882v3.978Z" fill="#33D997"/></svg>